P2
#Nueva imagen con kenel
23 6
15
0 0 0 0 0 0 0 0 0 0 0 0 0 0 0 0 0 0 0 0 0 0 0 
0 9 12 9 6 3 14 15 15 15 14 7 15 15 15 15 15 11 15 15 15 15 15 
0 15 15 15 9 3 15 15 15 15 15 7 15 15 15 15 15 11 15 15 15 15 15 
0 12 15 6 3 0 15 15 15 14 7 0 15 15 15 15 11 0 15 15 15 15 15 
0 12 15 6 3 0 15 15 15 15 15 7 15 15 15 15 15 11 15 15 15 15 15 
0 6 6 0 0 0 14 15 15 15 14 7 15 15 15 15 15 11 15 15 15 0 0 

